<svg width="296" height="17" viewBox="0 0 296 17" fill="none" xmlns="http://www.w3.org/2000/svg">
<g clip-path="url(#clip0_1_10)">
<path fill-rule="evenodd" clip-rule="evenodd" d="M0.5 8.63636H122.5V9.6212H0.5V8.63636ZM173.5 8.63636H295.5V9.6212H173.5V8.63636Z" fill="#4F5D74"/>
<path d="M144.5 3.71211C144.5 2.08036 143.157 0.757568 141.5 0.757568C139.843 0.757568 138.5 2.08036 138.5 3.71211V13.5606C138.5 15.1923 139.843 16.5151 141.5 16.5151C143.157 16.5151 144.5 15.1923 144.5 13.5606V3.71211Z" fill="#CEE3E9"/>
<path d="M158.5 3.71211C158.5 2.08036 157.157 0.757568 155.5 0.757568C153.843 0.757568 152.5 2.08036 152.5 3.71211V13.5606C152.5 15.1923 153.843 16.5151 155.5 16.5151C157.157 16.5151 158.5 15.1923 158.5 13.5606V3.71211Z" fill="#CEE3E9"/>
</g>
<defs>
<clipPath id="clip0_1_10">
<rect width="295" height="15.7576" fill="white" transform="translate(0.5 0.757568)"/>
</clipPath>
</defs>
</svg>
